<svg width="18" height="15" viewBox="0 0 18 15" fill="none" xmlns="http://www.w3.org/2000/svg">
<path fill-rule="evenodd" clip-rule="evenodd" d="M7.7075 1.28762C7.8975 1.48762 7.9975 1.73762 7.9975 1.99762C7.9975 2.25762 7.8975 2.50762 7.7075 2.70762L3.4075 6.99762L16.9975 6.99762C17.5475 6.99762 17.9975 7.44762 17.9975 7.99762C17.9975 8.54762 17.5475 8.99762 16.9975 8.99762L3.4075 8.99762L7.7075 13.2876C8.0975 13.6776 8.0975 14.3176 7.7075 14.7076C7.3175 15.0976 6.6775 15.0976 6.2875 14.7076L0.2875 8.70762C0.1975 8.61762 0.1275 8.50762 0.0775003 8.38762C0.0575003 8.33762 0.0375003 8.29762 0.0375003 8.24762C-0.0124997 8.08762 -0.0124997 7.90762 0.0375003 7.74762C0.0375003 7.69762 0.0575003 7.65762 0.0775003 7.60762C0.1275 7.48762 0.1975 7.37762 0.2875 7.28762L6.2875 1.28762C6.6775 0.897622 7.3175 0.897622 7.7075 1.28762Z" fill="#313037"/>
</svg>
